<?xml version="1.0" encoding="UTF-8" standalone="no"?>
<svg
   xmlns:dc="http://purl.org/dc/elements/1.1/"
   xmlns:cc="http://creativecommons.org/ns#"
   xmlns:rdf="http://www.w3.org/1999/02/22-rdf-syntax-ns#"
   xmlns:svg="http://www.w3.org/2000/svg"
   xmlns="http://www.w3.org/2000/svg"
   xmlns:sodipodi="http://sodipodi.sourceforge.net/DTD/sodipodi-0.dtd"
   xmlns:inkscape="http://www.inkscape.org/namespaces/inkscape"
   width="14"
   height="120"
   viewBox="0 0 3.7041666 31.75"
   version="1.1"
   id="svg8"
   sodipodi:docname="fire.svg"
   inkscape:version="1.0.1 (c497b03c, 2020-09-10)">
  <defs
     id="defs2" />
  <sodipodi:namedview
     id="base"
     pagecolor="#ffffff"
     bordercolor="#666666"
     borderopacity="1.0"
     inkscape:pageopacity="0.0"
     inkscape:pageshadow="2"
     inkscape:zoom="6.89"
     inkscape:cx="-3.9743737"
     inkscape:cy="74.230279"
     inkscape:document-units="px"
     inkscape:current-layer="layer1"
     inkscape:document-rotation="0"
     showgrid="false"
     units="px"
     inkscape:window-width="1680"
     inkscape:window-height="926"
     inkscape:window-x="-1"
     inkscape:window-y="23"
     inkscape:window-maximized="0" />
  <metadata
     id="metadata5">
    <rdf:RDF>
      <cc:Work
         rdf:about="">
        <dc:format>image/svg+xml</dc:format>
        <dc:type
           rdf:resource="http://purl.org/dc/dcmitype/StillImage" />
        <dc:title></dc:title>
      </cc:Work>
    </rdf:RDF>
  </metadata>
  <g
     inkscape:label="Layer 1"
     inkscape:groupmode="layer"
     id="layer1">
    <path
       id="rect833"
       style="fill:#ff366a;fill-opacity:1;stroke:#4e2851;stroke-width:0.738826;stroke-linecap:butt;stroke-linejoin:miter;stroke-miterlimit:4;stroke-dasharray:none;stroke-opacity:1"
       d="M 1.4277464,0.36941323 H 2.38125 3.3347536 c 0,0 -1.0583334,1.20209127 -1.0583334,1.93819827 0,0.736107 1.0583334,1.2020913 1.0583334,1.9381983 0,0.736107 -1.0583334,1.2020913 -1.0583334,1.9381983 0,0.736107 1.0583334,1.2020913 1.0583334,1.9381983 0,0.7361071 -1.0583334,1.2020915 -1.0583334,1.9381986 0,0.736107 1.0583333,1.202091 1.0583334,1.938198 10e-8,0.736107 -1.0583335,1.202092 -1.0583334,1.938199 10e-8,0.736107 1.0583333,1.202091 1.0583334,1.938198 10e-8,0.736107 -1.0583335,1.202092 -1.0583334,1.938199 10e-8,0.736107 1.0583334,1.202091 1.0583334,1.938198 0,0.736107 -1.0583334,1.202091 -1.0583334,1.938198 0,0.736107 1.0583333,1.202091 1.0583334,1.938198 10e-8,0.736107 -1.0583335,1.202092 -1.0583334,1.938199 10e-8,0.736107 1.0583334,1.202091 1.0583334,1.938198 0,0.736107 -1.0583334,1.202091 -1.0583334,1.938198 0,0.736107 1.0583334,1.938198 1.0583334,1.938198 H 2.38125 1.4277464 c 0,0 -1.05833334,-1.202091 -1.05833334,-1.938198 0,-0.736107 1.05833334,-1.202091 1.05833334,-1.938198 0,-0.736107 -1.05833326,-1.202091 -1.05833334,-1.938198 -8e-8,-0.736107 1.05833344,-1.202092 1.05833334,-1.938199 -1e-7,-0.736107 -1.05833334,-1.202091 -1.05833334,-1.938198 0,-0.736107 1.05833334,-1.202091 1.05833334,-1.938198 0,-0.736107 -1.05833326,-1.202091 -1.05833334,-1.938198 -8e-8,-0.736107 1.05833344,-1.202092 1.05833334,-1.938199 -1e-7,-0.736107 -1.05833326,-1.202091 -1.05833334,-1.938198 -8e-8,-0.736107 1.05833344,-1.202092 1.05833334,-1.938199 -1e-7,-0.736107 -1.05833329,-1.202091 -1.05833334,-1.938198 -5e-8,-0.7361071 1.05833334,-1.2020915 1.05833334,-1.9381986 0,-0.736107 -1.05833334,-1.2020913 -1.05833334,-1.9381983 0,-0.736107 1.05833334,-1.2020913 1.05833334,-1.9381983 0,-0.736107 -1.05833334,-1.2020913 -1.05833334,-1.9381983 0,-0.736107 1.05833334,-1.93819827 1.05833334,-1.93819827 z"
       sodipodi:nodetypes="cccaaaaaaaaaaaaaaacccaaaaaaaaaaaaaaac" />
  </g>
</svg>
